<svg version="1.1" id="Icons" xmlns="http://www.w3.org/2000/svg" xmlns:xlink="http://www.w3.org/1999/xlink" x="0px" y="0px" viewBox="0 0 32 32" style="enable-background:new 0 0 32 32;" xml:space="preserve">
<g>
	<path d="M4,13c-0.6,0-1,0.4-1,1v4c0,0.6,0.4,1,1,1s1-0.4,1-1v-4C5,13.4,4.6,13,4,13z" id="id_101" style="fill: rgb(40, 185, 214);"></path>
	<path d="M8,11c-0.6,0-1,0.4-1,1v8c0,0.6,0.4,1,1,1s1-0.4,1-1v-8C9,11.4,8.6,11,8,11z" id="id_102" style="fill: rgb(214, 40, 58);"></path>
	<path d="M12,6c-0.6,0-1,0.4-1,1v18c0,0.6,0.4,1,1,1s1-0.4,1-1V7C13,6.4,12.6,6,12,6z" id="id_103" style="fill: rgb(25, 204, 37);"></path>
	<path d="M16,13c-0.6,0-1,0.4-1,1v4c0,0.6,0.4,1,1,1s1-0.4,1-1v-4C17,13.4,16.6,13,16,13z" id="id_104" style="fill: rgb(25, 43, 204);"></path>
	<path d="M20,9c-0.6,0-1,0.4-1,1v12c0,0.6,0.4,1,1,1s1-0.4,1-1V10C21,9.4,20.6,9,20,9z" id="id_105" style="fill: rgb(204, 25, 192);"></path>
	<path d="M24,6c-0.6,0-1,0.4-1,1v18c0,0.6,0.4,1,1,1s1-0.4,1-1V7C25,6.4,24.6,6,24,6z" id="id_106" style="fill: rgb(192, 204, 25);"></path>
	<path d="M28,13c-0.6,0-1,0.4-1,1v4c0,0.6,0.4,1,1,1s1-0.4,1-1v-4C29,13.4,28.6,13,28,13z" id="id_107" style="fill: rgb(25, 162, 204);"></path>
</g>
</svg>